<?xml version="1.0" encoding="UTF-8" standalone="no"?>
<svg
   viewBox="0 0 26 22"
   version="1.1"
   id="svg106"
   sodipodi:docname="work.svg"
   preserveAspectRatio="none"
   inkscape:version="1.1.1 (eb90963e84, 2021-10-02)"
   xmlns:inkscape="http://www.inkscape.org/namespaces/inkscape"
   xmlns:sodipodi="http://sodipodi.sourceforge.net/DTD/sodipodi-0.dtd"
   xmlns="http://www.w3.org/2000/svg"
   xmlns:svg="http://www.w3.org/2000/svg">
  <defs
     id="defs110" />
  <sodipodi:namedview
     id="namedview108"
     pagecolor="#ffffff"
     bordercolor="#666666"
     borderopacity="1.0"
     inkscape:pageshadow="2"
     inkscape:pageopacity="0.0"
     inkscape:pagecheckerboard="0"
     showgrid="false"
     fit-margin-top="0"
     fit-margin-left="0"
     fit-margin-right="0"
     fit-margin-bottom="0"
     inkscape:zoom="15.1"
     inkscape:cx="13.013245"
     inkscape:cy="12.019868"
     inkscape:window-width="1366"
     inkscape:window-height="704"
     inkscape:window-x="0"
     inkscape:window-y="27"
     inkscape:window-maximized="1"
     inkscape:current-layer="svg106" />
  <path
     d="M 24,22 H 2 C 0.895,22 0,21.105 0,20 V 8 C 0,7.448 0.448,7 1,7 h 24 c 0.552,0 1,0.448 1,1 v 12 c 0,1.105 -0.895,2 -2,2 z M 2,0 H 6.868 C 7.571,0 8.222,0.369 8.583,0.971 L 11,5 H 0 V 2 C 0,0.895 0.895,0 2,0 Z"
     id="path102" />
  <path
     d="M 24,2 H 0 V 5 H 26 V 4 C 26,2.895 25.105,2 24,2 Z"
     id="path104" />
</svg>
